<?xml version="1.0" encoding="utf-8"?>
<!-- Generator: Adobe Illustrator 27.5.0, SVG Export Plug-In . SVG Version: 6.00 Build 0)  -->
<svg version="1.1" id="katman_1" xmlns="http://www.w3.org/2000/svg" xmlns:xlink="http://www.w3.org/1999/xlink" x="0px" y="0px"
	 viewBox="0 0 1280 800" style="enable-background:new 0 0 1280 800;" xml:space="preserve">
<style type="text/css">
	.st0{clip-path:url(#SVGID_00000124127399775288840650000004223559486988242088_);fill:#0066DA;}
	.st1{clip-path:url(#SVGID_00000124127399775288840650000004223559486988242088_);fill:#00AC47;}
	.st2{clip-path:url(#SVGID_00000124127399775288840650000004223559486988242088_);fill:#00832D;}
	.st3{clip-path:url(#SVGID_00000124127399775288840650000004223559486988242088_);fill:#2684FC;}
	.st4{clip-path:url(#SVGID_00000124127399775288840650000004223559486988242088_);fill:#EA4335;}
	.st5{clip-path:url(#SVGID_00000124127399775288840650000004223559486988242088_);fill:#FFBA00;}
	.st6{clip-path:url(#SVGID_00000124127399775288840650000004223559486988242088_);fill:#55585D;}
</style>
<g>
	<defs>
		<rect id="SVGID_1_" width="1280" height="800"/>
	</defs>
	<clipPath id="SVGID_00000134954552318516021540000011744439782626589829_">
		<use xlink:href="#SVGID_1_"  style="overflow:visible;"/>
	</clipPath>
	<path style="clip-path:url(#SVGID_00000134954552318516021540000011744439782626589829_);fill:#0066DA;" d="M68.21,547.16
		l20.35,35.14c4.2,7.23,10.21,13.24,17.44,17.44l72.67-125.76H33.33c0,8.34,2.19,16.54,6.34,23.78L68.21,547.16z"/>
	<path style="clip-path:url(#SVGID_00000134954552318516021540000011744439782626589829_);fill:#00AC47;" d="M263.98,326.03
		l-72.66-125.76c-7.23,4.2-13.24,10.21-17.43,17.44L39.67,450.2c-4.15,7.24-6.34,15.43-6.34,23.77h145.33L263.98,326.03z"/>
	<path style="clip-path:url(#SVGID_00000134954552318516021540000011744439782626589829_);fill:#00832D;" d="M263.98,326.03
		l72.66-125.76c-7.21-4.21-15.43-6.39-23.78-6.33H215.1c-8.34,0.07-16.52,2.25-23.78,6.34L263.98,326.03z"/>
	<path style="clip-path:url(#SVGID_00000134954552318516021540000011744439782626589829_);fill:#2684FC;" d="M349.3,473.97H178.66
		l-72.67,125.76c7.21,4.21,15.43,6.39,23.77,6.33h268.43c8.33-0.07,16.52-2.25,23.77-6.34L349.3,473.97z"/>
	<path style="clip-path:url(#SVGID_00000134954552318516021540000011744439782626589829_);fill:#EA4335;" d="M421.97,599.74
		c7.23-4.2,13.24-10.21,17.44-17.44l8.45-14.55l40.42-70.01c4.15-7.23,6.33-15.42,6.34-23.76H349.58L421.97,599.74z"/>
	<path style="clip-path:url(#SVGID_00000134954552318516021540000011744439782626589829_);fill:#FFBA00;" d="M421.18,333.95
		L354.07,217.7c-4.19-7.23-10.2-13.24-17.43-17.44l-72.66,125.76l85.32,147.94h145.07c-0.01-8.34-2.19-16.53-6.34-23.77
		L421.18,333.95z"/>
	<path style="clip-path:url(#SVGID_00000134954552318516021540000011744439782626589829_);fill:#55585D;" d="M935.01,306.07
		c4.64-0.78,9.7-0.91,14.11,0.98c3.11,2.19,6.23,4.71,8.07,8.11c1.91,5.56,1.91,11.92-0.1,17.47c-2.38,4.26-6.32,8.14-11.37,8.79
		c-4.98,0.79-10.47,0.82-15.02-1.63c-3.58-2.76-7.23-6.28-7.91-10.96c-0.96-4.86-0.66-10.19,1.61-14.63
		C927.1,310.65,930.42,306.95,935.01,306.07"/>
	<path style="clip-path:url(#SVGID_00000134954552318516021540000011744439782626589829_);fill:#55585D;" d="M642.21,307.45
		c22.6-0.46,45.21-0.03,67.83-0.22c3.08-0.12,6.15,0.33,9.06,1.35c6.83,1.46,14.17,1.03,20.57,4.15
		c28.15,8.26,51.71,31.45,59.9,59.67c3.28,6.31,2.64,13.68,4.32,20.44c1.86,6.41,1.04,13.13,1.21,19.71
		c0.15,3.26-0.55,6.44-1.54,9.53c-0.83,6.22-0.98,12.63-3,18.61c-1.99,3.85-2.46,8.29-4.68,12.05
		c-9.78,22.46-29.34,40.35-52.47,48.34c-4.67,2.54-10.08,2.57-15.12,3.8c-5.16,2.07-10.85,2.01-16.32,2.39
		c-23.27,0.04-46.53,0.17-69.79-0.06C642.34,440.64,642.28,374.04,642.21,307.45 M668.94,332.79c-0.21,49.69-0.14,99.38-0.03,149.07
		c11.82,0.01,23.63,0.17,35.45-0.07c8.63-0.87,17.72-0.03,25.87-3.55c7.51-2.22,14.67-5.7,20.95-10.38
		c8.5-6.1,14.67-14.8,19.48-23.98c1.06-2.62,1.63-5.42,2.77-8.01c2.45-5.5,2.45-11.64,3.32-17.49c2.32-7.74,1.75-16.1-0.23-23.83
		c-1.3-20.6-12.99-40.28-30.7-50.99c-3.28-2.29-7.15-3.43-10.67-5.26c-3.73-1.86-8.02-1.94-11.89-3.4
		c-4.51-1.74-9.42-1.48-14.17-1.63C695.73,332.34,682.32,332.86,668.94,332.79"/>
	<path style="clip-path:url(#SVGID_00000134954552318516021540000011744439782626589829_);fill:#55585D;" d="M1157.2,369.72
		c5.28-2.68,11.31-3.13,17.13-3.35c8.38-0.06,16.87-0.42,25.11,1.41c8.91,2.82,17.74,6.6,24.72,12.98
		c7.81,6.8,13.85,15.59,17.33,25.32c0.88,4.2,3.18,7.97,3.64,12.27c1.21,8.4,1.71,16.93,1.46,25.41
		c-35.57,0.4-71.14,0.17-106.71,0.11c-0.65,6.2,2.03,11.82,3.63,17.63c4.26,9.54,12.04,17.4,21.39,22.03
		c9.28,3.66,20.01,6.37,29.64,2.29c11.53-3.08,21.42-12.02,26.06-22.94c8.53,3.09,16.19,8.06,24.63,11.33
		c-6.71,13.09-17.49,24.33-30.98,30.45c-3.9,2.43-8.45,3.31-12.63,5.11c-7.64,1.99-15.61,1.81-23.44,1.77
		c-6.41-0.02-12.99-0.51-18.92-3.14c-16.04-4.69-29.06-16.85-37.37-31.07c-3.03-5.4-5.35-11.17-6.49-17.27
		c-3.11-7.21-2.4-15.22-2.52-22.88c0.09-6.43-0.28-13.18,2.38-19.2c3.53-16.71,13.97-31.73,27.97-41.42
		C1147.54,373.62,1152.19,371.17,1157.2,369.72 M1171.07,391.16c-2.94,1.28-6.06,2.1-8.98,3.41c-9.98,5.6-17.54,15.54-19.77,26.8
		c25.43,0.15,50.87,0.06,76.31,0.05c-0.66-10.21-7.13-19.65-15.6-25.19c-3.74-2.86-8.61-3.24-12.82-5.12
		C1183.93,389.87,1177.3,389.56,1171.07,391.16"/>
	<path style="clip-path:url(#SVGID_00000134954552318516021540000011744439782626589829_);fill:#55585D;" d="M874.81,369.65
		c7.28-3.88,15.91-3.39,23.86-2.56c3.48,0.45,7.52,0.45,10.06,3.26c-0.01,3.99-1.34,7.86-3,11.45c-1.53,3.58-1.78,7.52-3.01,11.2
		c-0.9,1.21-2.32,2.09-3.87,1.55c-6.96-1.16-14.07-1.45-21.01-0.01c-11.1,3.53-20.17,12.48-24.28,23.32
		c-2.75,5.03-2.39,10.95-2.78,16.49c0.02,24.29-0.12,48.59,0.08,72.87c-8.8,0.19-17.62,0.07-26.42,0.08
		c-0.09-45.57-0.08-91.15,0-136.71c8.51,0.15,17.07-0.56,25.54,0.45c-0.08,6.43-0.25,12.87,0.13,19.3
		c2.83-3.71,5.23-7.81,8.72-10.97C863.51,375.18,868.87,371.71,874.81,369.65"/>
	<path style="clip-path:url(#SVGID_00000134954552318516021540000011744439782626589829_);fill:#55585D;" d="M927.22,370.62
		c8.84-0.13,17.68-0.07,26.52-0.04c0.03,45.57,0.06,91.14-0.02,136.7c-8.83,0.07-17.67,0.08-26.51-0.01
		C927.27,461.73,927.27,416.18,927.22,370.62"/>
	<path style="clip-path:url(#SVGID_00000134954552318516021540000011744439782626589829_);fill:#55585D;" d="M971.97,370.6
		c9-0.02,18.01-0.2,27.01,0.06c3.51,0.08,3.11,4.27,4.16,6.66c9.18,24.26,18.5,48.45,27.49,72.78c2.1,3.89,2.87,8.31,4.86,12.24
		c1.7,4.03,2.03,8.67,5.05,12.06c6.56-15.54,11.96-31.55,18.49-47.12c0.98-4.47,3.32-8.41,4.68-12.75
		c4.33-11.1,8.62-22.22,12.83-33.38c1.66-3.18,2.65-6.65,3.37-10.15c9.67-0.96,19.43-0.35,29.13-0.36
		c-3.25,8.12-6.26,16.34-10.01,24.26c-1.41,3.63-2.35,7.45-4.22,10.9c-9.14,22.25-18.15,44.57-27.35,66.79
		c-4.17,11.12-9.32,21.86-13.14,33.11c-1.3,2.08-3.88,1.54-5.94,1.65c-7.27-0.04-14.55-0.03-21.83-0.06
		c-1.09-4.64-3.84-8.61-5.06-13.2c-9.35-23.12-18.86-46.19-28.09-69.36c-3.38-7.23-5.64-14.93-9.08-22.12
		c-2.58-6.22-4.62-12.64-7.56-18.7C975.45,379.38,972.81,375.31,971.97,370.6"/>
</g>
</svg>
